<svg width="30" height="30" viewBox="0 0 30 30" fill="none" xmlns="http://www.w3.org/2000/svg">
<path d="M15 0C6.71652 0 0 6.71652 0 15C0 23.2835 6.71652 30 15 30C23.2835 30 30 23.2835 30 15C30 6.71652 23.2835 0 15 0ZM15 23.7054C14.26 23.7054 13.6607 23.106 13.6607 22.3661C13.6607 21.6261 14.26 21.0268 15 21.0268C15.74 21.0268 16.3393 21.6261 16.3393 22.3661C16.3393 23.106 15.74 23.7054 15 23.7054ZM17.106 16.356C16.8028 16.4731 16.5419 16.6789 16.3574 16.9464C16.1728 17.214 16.0732 17.531 16.0714 17.856V18.6161C16.0714 18.7634 15.9509 18.8839 15.8036 18.8839H14.1964C14.0491 18.8839 13.9286 18.7634 13.9286 18.6161V17.8962C13.9286 17.1228 14.1529 16.3594 14.5949 15.7232C15.0268 15.1004 15.6295 14.625 16.3393 14.3538C17.4777 13.9152 18.2143 12.9609 18.2143 11.9196C18.2143 10.4431 16.7712 9.24107 15 9.24107C13.2288 9.24107 11.7857 10.4431 11.7857 11.9196V12.1741C11.7857 12.3214 11.6652 12.442 11.5179 12.442H9.91071C9.76339 12.442 9.64286 12.3214 9.64286 12.1741V11.9196C9.64286 10.6038 10.2187 9.375 11.2634 8.46094C12.2679 7.58036 13.5937 7.09821 15 7.09821C16.4062 7.09821 17.7321 7.58371 18.7366 8.46094C19.7812 9.375 20.3571 10.6038 20.3571 11.9196C20.3571 13.8549 19.0815 15.596 17.106 16.356Z" fill="#5200FF"/>
</svg>
