<svg width="77" height="50" viewBox="0 0 77 50" fill="none" xmlns="http://www.w3.org/2000/svg">
<circle cx="25" cy="25" r="25" transform="matrix(1 0 0 -1 27 50)" fill="#06B6A7"/>
<path d="M39.1136 19.3636L41.9261 28.2045H42.0341L44.8523 19.3636H47.5795L43.5682 31H40.3977L36.3807 19.3636H39.1136ZM58.5909 23.4375H56.1023C56.0568 23.1155 55.964 22.8295 55.8239 22.5795C55.6837 22.3258 55.5038 22.1098 55.2841 21.9318C55.0644 21.7538 54.8106 21.6174 54.5227 21.5227C54.2386 21.428 53.9299 21.3807 53.5966 21.3807C52.9943 21.3807 52.4697 21.5303 52.0227 21.8295C51.5758 22.125 51.2292 22.5568 50.983 23.125C50.7367 23.6894 50.6136 24.375 50.6136 25.1818C50.6136 26.0114 50.7367 26.7083 50.983 27.2727C51.233 27.8371 51.5814 28.2633 52.0284 28.5511C52.4754 28.839 52.9924 28.983 53.5795 28.983C53.9091 28.983 54.214 28.9394 54.4943 28.8523C54.7784 28.7652 55.0303 28.6383 55.25 28.4716C55.4697 28.3011 55.6515 28.0947 55.7955 27.8523C55.9432 27.6098 56.0455 27.3333 56.1023 27.0227L58.5909 27.0341C58.5265 27.5682 58.3655 28.0833 58.108 28.5795C57.8542 29.072 57.5114 29.5133 57.0795 29.9034C56.6515 30.2898 56.1402 30.5966 55.5455 30.8239C54.9545 31.0473 54.286 31.1591 53.5398 31.1591C52.5019 31.1591 51.5739 30.9242 50.7557 30.4545C49.9413 29.9848 49.2973 29.3049 48.8239 28.4148C48.3542 27.5246 48.1193 26.447 48.1193 25.1818C48.1193 23.9129 48.358 22.8333 48.8352 21.9432C49.3125 21.053 49.9602 20.375 50.7784 19.9091C51.5966 19.4394 52.517 19.2045 53.5398 19.2045C54.214 19.2045 54.839 19.2992 55.4148 19.4886C55.9943 19.678 56.5076 19.9545 56.9545 20.3182C57.4015 20.678 57.7652 21.1193 58.0455 21.642C58.3295 22.1648 58.5114 22.7633 58.5909 23.4375ZM64.5881 31.1591C63.7396 31.1591 62.9839 31.0133 62.321 30.7216C61.6619 30.4261 61.1411 30.0208 60.7585 29.5057C60.3797 28.9867 60.1847 28.3883 60.1733 27.7102H62.6506C62.6657 27.9943 62.7585 28.2443 62.929 28.4602C63.1032 28.6723 63.3343 28.8371 63.6222 28.9545C63.91 29.072 64.2339 29.1307 64.5938 29.1307C64.9688 29.1307 65.3002 29.0644 65.5881 28.9318C65.8759 28.7992 66.1013 28.6155 66.2642 28.3807C66.4271 28.1458 66.5085 27.875 66.5085 27.5682C66.5085 27.2576 66.4214 26.983 66.2472 26.7443C66.0767 26.5019 65.8305 26.3125 65.5085 26.1761C65.1903 26.0398 64.8116 25.9716 64.3722 25.9716H63.2869V24.1648H64.3722C64.7434 24.1648 65.071 24.1004 65.3551 23.9716C65.643 23.8428 65.8665 23.6648 66.0256 23.4375C66.1847 23.2064 66.2642 22.9375 66.2642 22.6307C66.2642 22.339 66.1941 22.0833 66.054 21.8636C65.9176 21.6402 65.7244 21.4659 65.4744 21.3409C65.2282 21.2159 64.9403 21.1534 64.6108 21.1534C64.2775 21.1534 63.9725 21.214 63.696 21.3352C63.4195 21.4527 63.1979 21.6212 63.0312 21.8409C62.8646 22.0606 62.7756 22.3182 62.7642 22.6136H60.4062C60.4176 21.9432 60.6089 21.3523 60.9801 20.8409C61.3513 20.3295 61.8513 19.9299 62.4801 19.642C63.1127 19.3504 63.8267 19.2045 64.6222 19.2045C65.4252 19.2045 66.1278 19.3504 66.7301 19.642C67.3324 19.9337 67.8002 20.3277 68.1335 20.8239C68.4706 21.3163 68.6373 21.8693 68.6335 22.483C68.6373 23.1345 68.4347 23.678 68.0256 24.1136C67.6203 24.5492 67.0919 24.8258 66.4403 24.9432V25.0341C67.2964 25.1439 67.9479 25.4413 68.3949 25.9261C68.8456 26.4072 69.0691 27.0095 69.0653 27.733C69.0691 28.3958 68.8778 28.9848 68.4915 29.5C68.1089 30.0152 67.5805 30.4205 66.9062 30.7159C66.232 31.0114 65.4593 31.1591 64.5881 31.1591Z" fill="white"/>
<line x1="32.5267" y1="32.4045" x2="0.526686" y2="44.4045" stroke="#06B6A7" stroke-width="3"/>
</svg>
