<svg width="73" height="73" viewBox="0 0 73 73" fill="none" xmlns="http://www.w3.org/2000/svg">
<g filter="url(#filter0_d_2984_832)">
<circle cx="36.5" cy="32.5" r="32.5" fill="black"/>
<circle cx="36.5" cy="32.5" r="32" stroke="white"/>
</g>
<path d="M24.507 25.5428C23.4866 24.5224 23.4866 22.868 24.507 21.8476V21.8476C25.5274 20.8272 27.1818 20.8272 28.2022 21.8476L46.9143 40.5597C47.9347 41.5801 47.9347 43.2344 46.9143 44.2548V44.2548C45.8939 45.2752 44.2395 45.2752 43.2191 44.2548L24.507 25.5428Z" fill="white"/>
<path d="M43.2191 21.8476C44.2395 20.8272 45.8938 20.8272 46.9142 21.8476V21.8476C47.9346 22.868 47.9346 24.5224 46.9142 25.5428L28.2022 44.2548C27.1818 45.2752 25.5274 45.2752 24.507 44.2548V44.2548C23.4866 43.2344 23.4866 41.5801 24.507 40.5597L43.2191 21.8476Z" fill="white"/>
<defs>
<filter id="filter0_d_2984_832" x="0" y="0" width="73" height="73" filterUnits="userSpaceOnUse" color-interpolation-filters="sRGB">
<feFlood flood-opacity="0" result="BackgroundImageFix"/>
<feColorMatrix in="SourceAlpha" type="matrix" values="0 0 0 0 0 0 0 0 0 0 0 0 0 0 0 0 0 0 127 0" result="hardAlpha"/>
<feOffset dy="4"/>
<feGaussianBlur stdDeviation="2"/>
<feComposite in2="hardAlpha" operator="out"/>
<feColorMatrix type="matrix" values="0 0 0 0 0 0 0 0 0 0 0 0 0 0 0 0 0 0 0.25 0"/>
<feBlend mode="normal" in2="BackgroundImageFix" result="effect1_dropShadow_2984_832"/>
<feBlend mode="normal" in="SourceGraphic" in2="effect1_dropShadow_2984_832" result="shape"/>
</filter>
</defs>
</svg>
