<svg width="20" height="20" viewBox="0 0 18 18" fill="none" xmlns="http://www.w3.org/2000/svg">
<circle cx="8.75" cy="8.75" r="8.75" fill="#00AC4F"/>
<path d="M9.29537 5.978C8.81003 5.71667 8.37137 5.37133 7.97937 4.942C7.9887 4.79267 8.04937 4.62467 8.16137 4.438C8.2827 4.242 8.4227 4.06467 8.58137 3.906C8.74937 3.738 8.90803 3.63533 9.05737 3.598C9.2067 3.598 9.3747 3.65867 9.56137 3.78C9.74803 3.892 9.9207 4.032 10.0794 4.2C10.238 4.35867 10.3314 4.51267 10.3594 4.662C10.35 4.82067 10.2847 4.998 10.1634 5.194C10.042 5.38067 9.90203 5.54867 9.74337 5.698C9.5847 5.838 9.43537 5.93133 9.29537 5.978ZM10.8354 12.124C10.9007 12.236 10.98 12.4087 11.0734 12.642C11.1667 12.866 11.2227 13.0853 11.2414 13.3L9.35137 14.224C8.64203 13.8973 8.1567 13.4773 7.89537 12.964L8.18937 8.568L7.16737 8.876C7.10203 8.764 7.0227 8.596 6.92937 8.372C6.83603 8.13867 6.78003 7.91467 6.76137 7.7L8.65137 6.776C8.7447 6.78533 8.88003 6.83667 9.05737 6.93C9.2347 7.02333 9.40737 7.126 9.57537 7.238C9.7527 7.35 9.88803 7.44333 9.98137 7.518L9.58937 10.598V12.502L10.8354 12.124Z" fill="white"/>
</svg>
