<svg width="77" height="50" viewBox="0 0 77 50" fill="none" xmlns="http://www.w3.org/2000/svg">
<circle cx="25" cy="25" r="25" transform="matrix(1 0 0 -1 27 50)" fill="#06B6A7"/>
<path d="M39.1136 19.3636L41.9261 28.2045H42.0341L44.8523 19.3636H47.5795L43.5682 31H40.3977L36.3807 19.3636H39.1136ZM58.5909 23.4375H56.1023C56.0568 23.1155 55.964 22.8295 55.8239 22.5795C55.6837 22.3258 55.5038 22.1098 55.2841 21.9318C55.0644 21.7538 54.8106 21.6174 54.5227 21.5227C54.2386 21.428 53.9299 21.3807 53.5966 21.3807C52.9943 21.3807 52.4697 21.5303 52.0227 21.8295C51.5758 22.125 51.2292 22.5568 50.983 23.125C50.7367 23.6894 50.6136 24.375 50.6136 25.1818C50.6136 26.0114 50.7367 26.7083 50.983 27.2727C51.233 27.8371 51.5814 28.2633 52.0284 28.5511C52.4754 28.839 52.9924 28.983 53.5795 28.983C53.9091 28.983 54.214 28.9394 54.4943 28.8523C54.7784 28.7652 55.0303 28.6383 55.25 28.4716C55.4697 28.3011 55.6515 28.0947 55.7955 27.8523C55.9432 27.6098 56.0455 27.3333 56.1023 27.0227L58.5909 27.0341C58.5265 27.5682 58.3655 28.0833 58.108 28.5795C57.8542 29.072 57.5114 29.5133 57.0795 29.9034C56.6515 30.2898 56.1402 30.5966 55.5455 30.8239C54.9545 31.0473 54.286 31.1591 53.5398 31.1591C52.5019 31.1591 51.5739 30.9242 50.7557 30.4545C49.9413 29.9848 49.2973 29.3049 48.8239 28.4148C48.3542 27.5246 48.1193 26.447 48.1193 25.1818C48.1193 23.9129 48.358 22.8333 48.8352 21.9432C49.3125 21.053 49.9602 20.375 50.7784 19.9091C51.5966 19.4394 52.517 19.2045 53.5398 19.2045C54.214 19.2045 54.839 19.2992 55.4148 19.4886C55.9943 19.678 56.5076 19.9545 56.9545 20.3182C57.4015 20.678 57.7652 21.1193 58.0455 21.642C58.3295 22.1648 58.5114 22.7633 58.5909 23.4375ZM60.2869 31V29.2273L64.429 25.392C64.7813 25.0511 65.0767 24.7443 65.3153 24.4716C65.5578 24.1989 65.7415 23.9318 65.8665 23.6705C65.9915 23.4053 66.054 23.1193 66.054 22.8125C66.054 22.4716 65.9763 22.178 65.821 21.9318C65.6657 21.6818 65.4536 21.4905 65.1847 21.358C64.9157 21.2216 64.6108 21.1534 64.2699 21.1534C63.9138 21.1534 63.6032 21.2254 63.3381 21.3693C63.0729 21.5133 62.8684 21.7197 62.7244 21.9886C62.5805 22.2576 62.5085 22.5777 62.5085 22.9489H60.1733C60.1733 22.1875 60.3456 21.5265 60.6903 20.9659C61.035 20.4053 61.518 19.9716 62.1392 19.6648C62.7604 19.358 63.4763 19.2045 64.2869 19.2045C65.1203 19.2045 65.8456 19.3523 66.4631 19.6477C67.0843 19.9394 67.5672 20.3447 67.9119 20.8636C68.2566 21.3826 68.429 21.9773 68.429 22.6477C68.429 23.0871 68.3419 23.5208 68.1676 23.9489C67.9972 24.3769 67.6922 24.8523 67.2528 25.375C66.8134 25.8939 66.1941 26.517 65.3949 27.2443L63.696 28.9091V28.9886H68.5824V31H60.2869Z" fill="white"/>
<line x1="32.5267" y1="32.4045" x2="0.526686" y2="44.4045" stroke="#06B6A7" stroke-width="3"/>
</svg>
